<?xml version="1.0" encoding="UTF-8"?>
<!-- Generated by Pixelmator Pro 3.8 -->
<svg width="600" height="600" viewBox="0 0 600 600" xmlns="http://www.w3.org/2000/svg">
    <g id="Group">
        <path id="Path" fill="#141417" stroke="#2e2e33" stroke-width="1.764706" d="M 134.117645 -0.514587 L 465.882355 -0.514587 C 539.953491 -0.514587 600 59.531921 600 133.603058 L 600 465.367798 C 600 539.438904 539.953491 599.485413 465.882355 599.485413 L 134.117645 599.485413 C 60.046532 599.485413 0 539.438904 0 465.367798 L 0 133.603058 C 0 59.531921 60.046532 -0.514587 134.117645 -0.514587 Z"/>
        <g id="g1">
            <path id="path1" fill="#3f3f46" stroke="none" d="M 82.574165 268.782867 L 82.574165 268.782867 C 91.175713 268.782867 98.148659 276.402557 98.148659 285.801941 L 98.148659 314.167206 C 98.148659 323.56662 91.175713 331.18634 82.574165 331.18634 L 82.574165 331.18634 C 73.972626 331.18634 66.999702 323.56662 66.999702 314.167206 L 66.999702 285.801941 C 66.999702 276.402557 73.972626 268.782867 82.574165 268.782867 Z M 139.680618 237.581085 L 139.680618 237.581085 C 148.28215 237.581085 155.255035 245.200836 155.255035 254.60025 L 155.255035 345.368896 C 155.255035 354.768311 148.28215 362.388062 139.680618 362.388062 L 139.680618 362.388062 C 131.079071 362.388062 124.106117 354.768311 124.106117 345.368896 L 124.106117 254.60025 C 124.106117 245.200836 131.079071 237.581085 139.680618 237.581085 Z M 196.787033 197.869812 L 196.787033 197.869812 C 205.388565 197.869812 212.36145 205.489502 212.36145 214.888885 L 212.36145 385.080261 C 212.36145 394.479675 205.388565 402.099426 196.787033 402.099426 L 196.787033 402.099426 C 188.185486 402.099426 181.21254 394.479675 181.21254 385.080261 L 181.21254 214.888885 C 181.21254 205.489502 188.185486 197.869812 196.787033 197.869812 Z M 253.893448 152.485413 L 253.893448 152.485413 C 262.494995 152.485413 269.467865 160.105164 269.467865 169.504578 L 269.467865 430.4646 C 269.467865 439.864014 262.494995 447.483765 253.893448 447.483765 L 253.893448 447.483765 C 245.291901 447.483765 238.318939 439.864014 238.318939 430.4646 L 238.318939 169.504578 C 238.318939 160.105164 245.291901 152.485413 253.893448 152.485413 Z M 310.999847 203.542786 L 310.999847 203.542786 C 319.60141 203.542786 326.574341 211.162537 326.574341 220.561951 L 326.574341 379.407227 C 326.574341 388.806641 319.60141 396.426392 310.999847 396.426392 L 310.999847 396.426392 C 302.398315 396.426392 295.425354 388.806641 295.425354 379.407227 L 295.425354 220.561951 C 295.425354 211.162537 302.398315 203.542786 310.999847 203.542786 Z M 368.106262 172.341095 L 368.106262 172.341095 C 376.707794 172.341095 383.680756 179.960846 383.680756 189.360229 L 383.680756 410.608948 C 383.680756 420.008423 376.707794 427.628052 368.106262 427.628052 L 368.106262 427.628052 C 359.50473 427.628052 352.531769 420.008423 352.531769 410.608948 L 352.531769 189.360229 C 352.531769 179.960846 359.50473 172.341095 368.106262 172.341095 Z M 425.212677 217.725433 L 425.212677 217.725433 C 433.814209 217.725433 440.78717 225.345154 440.78717 234.744568 L 440.78717 365.224609 C 440.78717 374.624084 433.814209 382.243713 425.212677 382.243713 L 425.212677 382.243713 C 416.611145 382.243713 409.638184 374.624084 409.638184 365.224609 L 409.638184 234.744568 C 409.638184 225.345154 416.611145 217.725433 425.212677 217.725433 Z M 482.319092 251.763733 L 482.319092 251.763733 C 490.920624 251.763733 497.893585 259.383484 497.893585 268.782867 L 497.893585 331.18634 C 497.893585 340.585754 490.920624 348.205444 482.319092 348.205444 L 482.319092 348.205444 C 473.71756 348.205444 466.744598 340.585754 466.744598 331.18634 L 466.744598 268.782867 C 466.744598 259.383484 473.71756 251.763733 482.319092 251.763733 Z M 539.425476 271.619324 L 539.425476 271.619324 C 548.027039 271.619324 555 279.239075 555 288.638489 L 555 311.330688 C 555 320.730072 548.027039 328.349823 539.425476 328.349823 L 539.425476 328.349823 C 530.823975 328.349823 523.851013 320.730072 523.851013 311.330688 L 523.851013 288.638489 C 523.851013 279.239075 530.823975 271.619324 539.425476 271.619324 Z"/>
            <path id="path2" fill="#e4e4e7" stroke="none" d="M 509 241.510895 C 489.167938 220.068848 466.516113 215.096039 435.475677 214.994873 C 399.618103 120.460754 291.082153 53.302551 145.18486 57.280823 C 246.929962 100.367249 334.952393 184.382599 393.837738 242.471863 C 367.755249 247.731201 341.978241 256.109131 324.895416 262.734009 L 253.203903 254.92923 L 295.993225 284.462677 L 260.535217 329.774353 L 327.950134 293.919434 C 345.643921 293.531738 372.03186 291.3909 398.114288 286.131439 C 352.669708 365.258301 284.197418 480.829956 194.671127 562.485413 C 335.680908 508.610352 427.110504 401.130005 443.417908 296.077087 C 473.236511 283.704071 494.055481 269.965546 509 241.510895 Z"/>
        </g>
    </g>
</svg>
